<?xml version="1.0" standalone="no"?>
<!DOCTYPE svg PUBLIC "-//W3C//DTD SVG 20010904//EN"
 "http://www.w3.org/TR/2001/REC-SVG-20010904/DTD/svg10.dtd">
<svg version="1.0" xmlns="http://www.w3.org/2000/svg"
 width="512.000000pt" height="512.000000pt" viewBox="0 0 512.000000 512.000000"
 preserveAspectRatio="xMidYMid meet">
<metadata>
Created by potrace 1.11, written by Peter Selinger 2001-2013
</metadata>
<g transform="translate(0.000000,512.000000) scale(0.100000,-0.100000)"
fill="#000000" stroke="none">
<path d="M2773 5101 c-65 -24 -117 -63 -152 -115 -42 -62 -50 -87 -67 -205 -4
-25 -8 -55 -10 -66 -3 -11 -7 -38 -9 -60 -9 -70 -24 -179 -29 -200 -2 -11 -7
-45 -10 -75 -4 -30 -8 -66 -11 -80 -2 -14 -7 -41 -9 -60 -3 -19 -7 -51 -10
-70 -3 -19 -10 -71 -16 -115 -6 -44 -13 -91 -15 -105 -2 -14 -7 -45 -10 -70
-3 -25 -8 -57 -10 -71 -3 -14 -7 -41 -9 -60 -3 -19 -7 -47 -10 -64 -2 -16 -7
-57 -11 -90 -4 -32 -8 -62 -10 -65 -2 -3 -7 -35 -10 -70 -4 -36 -8 -67 -10
-70 -1 -3 -6 -32 -10 -65 -3 -32 -8 -62 -10 -65 -1 -3 -6 -39 -10 -80 -4 -41
-9 -78 -10 -81 -2 -3 -6 -27 -10 -55 -3 -27 -7 -56 -10 -64 -2 -8 -6 -40 -10
-71 -3 -31 -8 -67 -10 -80 -3 -13 -7 -41 -10 -64 -6 -42 -14 -103 -20 -145 -2
-14 -7 -45 -10 -70 -3 -25 -8 -56 -10 -70 -2 -14 -11 -77 -20 -140 -9 -63 -18
-126 -20 -140 -6 -41 -17 -114 -21 -134 -2 -11 -6 -42 -9 -70 -8 -75 -15 -129
-20 -146 -2 -8 -7 -35 -10 -60 -3 -25 -8 -61 -11 -80 -2 -19 -6 -50 -9 -68 -2
-18 -6 -45 -9 -60 -3 -15 -8 -52 -11 -82 -3 -30 -8 -62 -10 -70 -2 -8 -6 -37
-10 -65 -3 -27 -15 -111 -26 -185 -10 -74 -22 -153 -24 -175 -3 -22 -8 -53
-12 -70 -3 -16 -7 -41 -8 -55 -3 -25 -22 -161 -29 -210 -4 -24 -9 -57 -22
-160 -3 -25 -10 -65 -14 -90 -5 -25 -7 -78 -5 -117 5 -127 66 -216 185 -272
45 -21 69 -26 135 -25 90 0 150 23 208 78 74 69 91 111 117 286 10 69 21 139
24 155 2 17 8 55 12 85 9 71 11 88 18 130 5 37 8 54 26 186 6 44 12 90 14 101
3 11 7 44 11 74 3 30 10 81 15 114 5 33 12 78 15 100 3 22 8 51 10 65 3 14 7
48 11 75 3 28 7 61 9 75 13 87 35 232 40 273 4 27 8 58 11 70 5 26 12 80 18
127 13 107 18 146 21 150 2 3 6 33 10 65 3 33 8 67 10 75 2 8 7 42 11 75 3 33
8 62 9 65 2 3 6 34 10 70 3 36 8 72 11 81 2 9 6 34 9 55 2 22 11 89 20 149 9
61 18 121 20 135 4 34 17 121 21 142 2 16 11 78 20 148 2 19 6 46 9 60 5 26
11 70 21 150 3 25 7 56 9 70 3 14 7 45 11 70 3 25 12 88 20 140 8 52 17 113
20 135 2 22 9 67 14 100 5 33 12 80 15 105 3 25 13 92 21 150 9 58 17 114 19
125 15 118 23 180 30 215 3 14 7 45 11 70 3 25 7 56 10 70 2 14 6 60 8 102 6
92 -8 146 -53 211 -77 113 -240 165 -368 118z"/>
<path d="M1334 4141 c-71 -26 -100 -49 -191 -154 -43 -50 -94 -109 -114 -131
-20 -23 -89 -102 -154 -176 -64 -74 -146 -167 -181 -206 -34 -38 -73 -83 -86
-100 -13 -16 -30 -36 -39 -44 -8 -8 -44 -49 -80 -90 -35 -41 -66 -77 -69 -80
-8 -7 -150 -170 -170 -194 -8 -10 -24 -28 -36 -40 -11 -11 -47 -52 -80 -91
-32 -38 -62 -72 -65 -75 -4 -3 -19 -30 -35 -60 -26 -48 -29 -65 -28 -140 0
-67 5 -95 23 -132 23 -48 135 -181 510 -604 20 -22 56 -64 81 -94 25 -29 54
-63 65 -74 11 -12 49 -55 85 -96 35 -41 71 -82 80 -91 8 -9 26 -29 39 -45 13
-16 56 -65 95 -109 80 -90 74 -83 141 -162 132 -155 184 -186 315 -187 70 -1
93 4 132 23 65 32 122 88 155 152 23 45 27 67 28 134 0 106 -23 162 -106 253
-19 20 -83 93 -143 162 -60 69 -139 159 -175 200 -56 63 -100 113 -146 166 -5
7 -28 33 -50 59 -22 27 -47 55 -56 64 -8 9 -44 50 -80 91 -35 41 -69 79 -75
85 -6 5 -35 39 -65 74 -30 35 -66 78 -82 95 -15 17 -27 33 -27 36 0 5 27 37
78 95 15 17 72 82 127 145 55 63 102 117 105 120 3 3 34 39 70 80 36 41 67 77
70 80 3 3 34 39 70 80 36 41 67 77 70 80 7 7 129 146 166 189 16 19 50 56 75
83 26 26 45 48 43 48 -4 0 31 41 71 84 14 14 39 70 55 120 17 53 7 156 -22
213 -27 54 -97 127 -142 147 -82 38 -178 44 -252 17z"/>
<path d="M3580 4143 c-140 -48 -222 -169 -216 -318 2 -46 11 -86 25 -117 21
-44 42 -70 181 -228 31 -36 94 -108 140 -160 45 -52 108 -124 139 -160 58 -66
96 -110 147 -169 16 -18 40 -46 54 -61 25 -27 107 -121 150 -170 12 -14 43
-50 70 -80 81 -92 100 -115 100 -121 0 -4 -12 -20 -27 -36 -16 -17 -47 -52
-70 -80 -24 -27 -53 -61 -65 -75 -38 -41 -76 -85 -223 -253 -77 -88 -142 -162
-145 -165 -3 -3 -34 -39 -70 -80 -35 -41 -71 -82 -80 -91 -8 -8 -37 -42 -65
-74 -64 -74 -123 -142 -154 -174 -81 -88 -112 -166 -107 -268 5 -87 32 -149
91 -207 68 -67 122 -89 225 -90 75 -1 91 2 140 28 64 33 90 59 280 280 19 23
42 48 50 56 8 8 40 44 70 80 30 36 57 67 60 70 3 3 34 39 70 80 36 41 67 77
70 80 3 3 34 39 69 80 36 41 70 80 75 85 6 6 36 39 66 75 30 36 64 74 75 86
11 11 43 47 70 80 52 61 126 145 135 154 3 3 40 44 82 92 103 120 122 160 122
268 0 127 -3 133 -264 430 -27 30 -57 64 -67 76 -10 12 -47 54 -83 94 -36 40
-76 86 -90 103 -14 17 -81 94 -149 171 -68 78 -149 170 -180 205 -54 63 -120
137 -185 212 -17 19 -58 67 -91 105 -95 110 -138 148 -191 173 -62 30 -170 36
-234 14z"/>
</g>
</svg>
